<?xml version="1.0" encoding="UTF-8"?>
<svg enable-background="new 0 0 4000 4000" version="1.1" viewBox="0 0 4e3 4e3" xmlns="http://www.w3.org/2000/svg">
 <path d="m2963.6 232.78c61.042-7.248 102.71-17.934 151.52-32.041 2.71 3.052 6.85 8.026 15.288 14.131-44.686 22.217-117.89 25.341-166.81 17.91zm-2730.8 803.62c-7.248-61.042-17.934-102.71-32.041-151.52 3.052-2.71 8.026-6.85 14.131-15.288 22.217 44.686 25.341 117.89 17.91 166.81zm803.62 2730.8c-61.042 7.248-102.71 17.934-151.52 32.041-2.71-3.052-6.85-8.026-15.288-14.132 44.686-22.216 117.89-25.34 166.81-17.909zm2730.8-803.62c7.248 61.042 17.934 102.71 32.041 151.52-3.052 2.71-8.026 6.85-14.132 15.288-22.216-44.686-25.34-117.89-17.909-166.81zm17.91-2094c6.105 8.438 11.08 12.578 14.132 15.288-14.107 48.807-24.793 90.477-32.041 151.52-7.432-48.917-4.308-122.12 17.909-166.81zm-2915.5-654.72c8.438-6.105 12.578-11.08 15.288-14.131 48.807 14.107 90.477 24.793 151.52 32.041-48.917 7.431-122.12 4.307-166.81-17.91zm-654.72 2915.5c-6.105-8.438-11.08-12.578-14.131-15.288 14.107-48.807 24.793-90.477 32.041-151.52 7.431 48.918 4.307 122.12-17.91 166.81zm2915.5 654.72c-8.438 6.105-12.578 11.08-15.288 14.132-48.807-14.107-90.477-24.793-151.52-32.041 48.918-7.432 122.12-4.308 166.81 17.909zm-8.855-3605.9c-49.956-84.408 89.613-143.9 158.96-96.591 18.589 12.673 23.97 24.026 25.333 34.059 0.113 0.82 0.108 0.789-0.752 1.072-59.495 20.155-70.67 24.403-108.65 37.289 0.669-30.415-37.786-52.949-51.072-31.689-6.593 10.554 0.052 25.304 4.135 36.937-2.671-11.909-10.142-33.013 4.712-39.771 13.011-5.781 37.296 13.269 33.288 37.176-0.205 1.105-52.355 17.362-53.428 17.694-4.359 1.368-11.777 3.612-12.526 3.824zm-2942.3 699.24c-84.408 49.956-143.9-89.613-96.59-158.96 12.673-18.588 24.026-23.97 34.059-25.334 0.82-0.112 0.789-0.108 1.072 0.752 20.155 59.495 24.403 70.67 37.289 108.65-30.415-0.669-52.949 37.786-31.689 51.072 10.554 6.593 25.304-0.053 36.937-4.135-11.909 2.671-33.013 10.142-39.771-4.712-5.781-13.011 13.269-37.296 37.176-33.288 1.105 0.205 17.362 52.355 17.694 53.428 1.367 4.36 3.611 11.778 3.823 12.527zm699.24 2942.3c49.956 84.408-89.613 143.9-158.96 96.591-18.588-12.673-23.97-24.026-25.334-34.059-0.112-0.82-0.108-0.789 0.752-1.072 59.495-20.155 70.67-24.403 108.65-37.289-0.669 30.415 37.786 52.949 51.072 31.689 6.593-10.554-0.053-25.304-4.135-36.937 2.671 11.909 10.142 33.013-4.712 39.771-13.011 5.781-37.296-13.269-33.288-37.176 0.205-1.105 52.355-17.362 53.428-17.694 4.36-1.368 11.778-3.612 12.527-3.824zm2942.3-699.24c84.408-49.956 143.9 89.613 96.591 158.96-12.673 18.589-24.026 23.97-34.059 25.333-0.82 0.113-0.789 0.108-1.072-0.752-20.155-59.495-24.403-70.67-37.289-108.65 30.415 0.669 52.949-37.786 31.689-51.072-10.554-6.593-25.304 0.052-36.937 4.135 11.909-2.671 33.013-10.142 39.771 4.712 5.781 13.011-13.269 37.296-37.176 33.288-1.105-0.205-17.362-52.355-17.694-53.428-1.368-4.359-3.612-11.777-3.824-12.526zm3.824-2255.6c0.333-1.073 16.589-53.223 17.694-53.428 23.907-4.008 42.957 20.277 37.176 33.288-6.758 14.855-27.862 7.383-39.771 4.712 11.633 4.082 26.383 10.728 36.937 4.135 21.26-13.286-1.274-51.741-31.689-51.072 12.885-37.98 17.134-49.155 37.289-108.65 0.283-0.86 0.252-0.864 1.072-0.752 10.033 1.363 21.386 6.745 34.059 25.334 47.305 69.347-12.183 208.92-96.591 158.96 0.212-0.749 2.456-8.167 3.824-12.527zm-2958.7-690.54c-1.073-0.333-53.223-16.589-53.428-17.694-4.008-23.907 20.277-42.957 33.288-37.176 14.855 6.758 7.383 27.862 4.712 39.771 4.082-11.633 10.728-26.383 4.135-36.937-13.286-21.26-51.741 1.274-51.072 31.689-37.98-12.885-49.155-17.134-108.65-37.289-0.86-0.283-0.864-0.252-0.752-1.072 1.363-10.033 6.745-21.386 25.334-34.059 69.347-47.306 208.92 12.183 158.96 96.591-0.749-0.212-8.167-2.456-12.527-3.824zm-690.54 2958.7c-0.333 1.073-16.589 53.223-17.694 53.428-23.907 4.008-42.957-20.277-37.176-33.288 6.758-14.855 27.862-7.383 39.771-4.712-11.633-4.082-26.383-10.728-36.937-4.135-21.26 13.286 1.274 51.741 31.689 51.072-12.885 37.98-17.134 49.156-37.289 108.65-0.283 0.86-0.252 0.864-1.072 0.752-10.033-1.363-21.386-6.745-34.059-25.333-47.306-69.347 12.183-208.92 96.591-158.96-0.212 0.748-2.456 8.166-3.824 12.526zm2958.7 690.54c1.073 0.333 53.223 16.589 53.428 17.694 4.008 23.907-20.277 42.957-33.288 37.176-14.855-6.758-7.383-27.862-4.712-39.771-4.082 11.633-10.728 26.383-4.135 36.937 13.286 21.26 51.741-1.274 51.072-31.689 37.98 12.885 49.156 17.134 108.65 37.289 0.86 0.283 0.864 0.252 0.752 1.072-1.363 10.033-6.745 21.386-25.333 34.059-69.347 47.305-208.92-12.183-158.96-96.591 0.748 0.212 8.166 2.456 12.526 3.824zm170.68-3689.4c-8.385 35.897-44.938 63.981-37.694 13.689 3.016-1.137 31.719-11.542 37.694-13.689zm-3169.5 559.99c35.897 8.385 63.981 44.938 13.689 37.694-1.137-3.016-11.542-31.719-13.689-37.694zm559.99 3169.5c8.385-35.897 44.938-63.98 37.694-13.689-3.016 1.137-31.719 11.542-37.694 13.689zm3169.5-559.99c-35.897-8.385-63.98-44.938-13.689-37.694 1.137 3.016 11.542 31.719 13.689 37.694zm-13.689-2571.8c-50.291 7.245-22.208-29.309 13.689-37.694-2.147 5.975-12.552 34.678-13.689 37.694zm-3118.1-584c7.245 50.291-29.309 22.208-37.694-13.689 5.975 2.147 34.678 12.552 37.694 13.689zm-584 3118.1c50.291-7.245 22.208 29.309-13.689 37.694 2.147-5.975 12.552-34.678 13.689-37.694zm3118.1 584c-7.245-50.291 29.309-22.208 37.694 13.689-5.975-2.147-34.678-12.552-37.694-13.689zm-120.03-3645.7c-4.825-2.937-9.271-6.392-13.172-10.28 13.83-4.288 27.554-8.819 41.239-13.45-7.847 9.193-17.658 16.981-28.067 23.73zm-2941.7 647.63c-2.937 4.825-6.392 9.271-10.28 13.172-4.288-13.83-8.819-27.554-13.45-41.239 9.193 7.847 16.981 17.658 23.73 28.067zm647.63 2941.7c4.825 2.937 9.271 6.392 13.172 10.28-13.83 4.288-27.554 8.819-41.239 13.45 7.847-9.193 17.658-16.981 28.067-23.73zm2941.7-647.63c2.937-4.825 6.392-9.271 10.28-13.172 4.288 13.83 8.819 27.554 13.45 41.239-9.193-7.847-16.981-17.658-23.73-28.067zm23.731-2322.1c-4.631 13.685-9.163 27.409-13.45 41.239-3.887-3.901-7.343-8.347-10.28-13.172 6.748-10.409 14.536-20.22 23.73-28.067zm-2993.5-643.29c13.685 4.631 27.409 9.162 41.239 13.45-3.901 3.888-8.347 7.342-13.172 10.28-10.409-6.748-20.22-14.536-28.067-23.73zm-643.29 2993.5c4.631-13.685 9.162-27.409 13.45-41.239 3.888 3.901 7.342 8.347 10.28 13.172-6.748 10.41-14.536 20.221-23.73 28.067zm2993.5 643.29c-13.685-4.631-27.409-9.163-41.239-13.45 3.901-3.887 8.347-7.343 13.172-10.28 10.41 6.748 20.221 14.536 28.067 23.73zm127.89-3622c-43.331 16.258-101.98 31.891-144.48 14.64 12.16-9.114 24.83-20.994 31.991-34.712 3.052-1.083 21.693-7.361 75.613-27.082-11.847 48.311 28.866 34.671 44.964-7.689 4.708-12.376-0.234-8.52 10.274-12.274-11.73 21.043-18.052 43.799-18.364 67.117zm-3106.6 500.58c16.258 43.331 31.891 101.98 14.64 144.48-9.114-12.16-20.994-24.83-34.712-31.991-1.083-3.052-7.361-21.693-27.082-75.613 48.311 11.847 34.671-28.866-7.689-44.964-12.376-4.708-8.52 0.234-12.274-10.274 21.043 11.731 43.799 18.052 67.117 18.364zm500.58 3106.6c43.331-16.258 101.98-31.891 144.48-14.64-12.16 9.114-24.83 20.994-31.991 34.712-3.052 1.083-21.693 7.361-75.613 27.082 11.847-48.311-28.866-34.671-44.964 7.689-4.708 12.376 0.234 8.521-10.274 12.274 11.731-21.043 18.052-43.799 18.364-67.117zm3106.6-500.58c-16.258-43.331-31.891-101.98-14.64-144.48 9.114 12.16 20.994 24.83 34.712 31.991 1.083 3.052 7.361 21.693 27.082 75.613-48.311-11.847-34.671 28.866 7.689 44.964 12.376 4.708 8.521-0.234 12.274 10.274-21.043-11.73-43.799-18.052-67.117-18.364zm67.118-2624.4c-3.754 10.508 0.102 5.566-12.274 10.274-42.36 16.098-56 56.812-7.689 44.964-19.721 53.92-25.999 72.562-27.082 75.613-13.718 7.162-25.598 19.832-34.712 31.991-17.251-42.499-1.618-101.15 14.64-144.48 23.317-0.312 46.073-6.633 67.117-18.364zm-3192.1-549.33c10.508 3.754 5.566-0.102 10.274 12.274 16.098 42.36 56.812 56 44.964 7.689 53.92 19.721 72.562 25.999 75.613 27.082 7.162 13.718 19.832 25.598 31.991 34.712-42.499 17.251-101.15 1.618-144.48-14.64-0.312-23.317-6.633-46.073-18.364-67.117zm-549.33 3192.1c3.754-10.509-0.102-5.566 12.274-10.274 42.36-16.098 56-56.811 7.689-44.964 19.721-53.92 25.999-72.562 27.082-75.613 13.718-7.162 25.598-19.832 34.712-31.991 17.251 42.499 1.618 101.15-14.64 144.48-23.317 0.311-46.073 6.633-67.117 18.364zm3192.1 549.33c-10.509-3.754-5.566 0.102-10.274-12.274-16.098-42.36-56.811-56-44.964-7.689-53.92-19.721-72.562-25.999-75.613-27.082-7.162-13.718-19.832-25.598-31.991-34.712 42.499-17.251 101.15-1.618 144.48 14.64 0.311 23.317 6.633 46.073 18.364 67.117zm276.51-3593.8c-23.374-1.172-41.581-17.451-35.347-58.608 1.986-10.658 10.076-25.649 22.6-40.028 26.206 27.12 32.321 65.637 12.747 98.636zm-3320.9 125.18c-1.172 23.374-17.451 41.581-58.608 35.347-10.658-1.986-25.649-10.076-40.028-22.599 27.12-26.207 65.637-32.322 98.636-12.748zm125.18 3320.9c23.374 1.171 41.581 17.45 35.347 58.608-1.986 10.658-10.076 25.649-22.599 40.028-26.207-27.12-32.322-65.637-12.748-98.636zm3320.9-125.18c1.171-23.374 17.45-41.581 58.608-35.347 10.658 1.986 25.649 10.076 40.028 22.6-27.12 26.206-65.637 32.321-98.636 12.747zm98.636-3183c-14.379 12.523-29.37 20.613-40.028 22.599-41.158 6.234-57.437-11.973-58.608-35.347 32.999-19.574 71.516-13.459 98.636 12.748zm-3406.8-236.57c12.523 14.379 20.613 29.37 22.599 40.028 6.234 41.158-11.973 57.437-35.347 58.608-19.574-32.999-13.459-71.516 12.748-98.636zm-236.57 3406.8c14.379-12.523 29.37-20.613 40.028-22.6 41.158-6.234 57.437 11.973 58.608 35.347-32.999 19.575-71.516 13.46-98.636-12.747zm3406.8 236.57c-12.523-14.379-20.613-29.37-22.6-40.028-6.234-41.158 11.973-57.437 35.347-58.608 19.575 32.999 13.46 71.516-12.747 98.636zm282.68-3689.5c-49.418-2.175-101.87 14.991-150.93 56.369-27.845 22.915-50.984 72.429-97.01 85.578 15.891-37.771 4.014-79.168-24.946-106.01 41.514-39.257 95.951-46.293 126.34-31.357 2.923 1.37 3.802 0.375 0.828-0.932-44.749-20.389-107.16-18.293-144.96 18.987-65.133-38.878-158.11-2.56-155.73 57.36 0.558 14.122 6.811 27.982 17.549 38.965-15.265-18.036-18.054-42.626-7.243-62.73 20.613-38.316 88.239-55.444 136.71-23.91-33.932 42.614-23.769 108.31 27.171 116.08-17.351 26.271-49.36 45.225-86.343 52.248-122.87 23.351-216.08-84.707-175.09-184.95 35.315-86.332 166.73-137.35 290.43-99.509 5.139 19.429 25.717 37.581 50.923 49.938 71.103 35.156 138.04 32.424 193.49 32.694 0.271 55.442-2.462 122.38 32.694 193.49 12.356 25.207 30.509 45.784 49.938 50.923 37.845 123.7-13.177 255.12-99.51 290.43-100.24 40.987-208.3-52.223-184.95-175.09 7.023-36.982 25.977-68.992 52.248-86.342 7.771 50.941 73.464 61.103 116.08 27.171 31.533 48.469 14.406 116.1-23.91 136.71-20.104 10.811-44.694 8.022-62.73-7.243 10.983 10.738 24.843 16.991 38.965 17.549 59.92 2.377 96.238-90.599 57.36-155.73 37.28-37.803 39.376-100.21 18.987-144.96-1.306-2.973-2.302-2.095-0.932 0.828 14.936 30.388 7.9 84.825-31.357 126.34-26.842-28.96-68.239-40.837-106.01-24.946 13.149-46.025 62.662-69.165 85.577-97.009 41.38-49.053 58.546-101.51 56.371-150.93zm0 3735.6c2.175-49.418-14.99-101.87-56.369-150.93-22.915-27.845-72.429-50.984-85.577-97.01 37.771 15.891 79.168 4.014 106.01-24.946 39.257 41.514 46.292 95.951 31.357 126.34-1.37 2.923-0.375 3.802 0.932 0.828 20.389-44.749 18.293-107.16-18.987-144.96 38.878-65.133 2.56-158.11-57.36-155.73-14.122 0.558-27.982 6.811-38.965 17.549 18.036-15.265 42.626-18.054 62.73-7.243 38.316 20.613 55.444 88.239 23.91 136.71-42.614-33.932-108.31-23.769-116.08 27.171-26.271-17.351-45.225-49.36-52.248-86.343-23.351-122.87 84.707-216.08 184.95-175.09 86.332 35.315 137.35 166.73 99.51 290.43-19.428 5.139-37.581 25.717-49.938 50.923-35.156 71.103-32.424 138.04-32.694 193.49-55.442 0.271-122.38-2.462-193.49 32.694-25.207 12.356-45.784 30.509-50.923 49.938-123.7 37.845-255.12-13.177-290.43-99.51-40.987-100.24 52.223-208.3 175.09-184.95 36.982 7.023 68.991 25.977 86.343 52.248-50.941 7.771-61.103 73.464-27.171 116.08-48.469 31.533-116.1 14.406-136.71-23.91-10.811-20.104-8.022-44.694 7.243-62.73-10.738 10.983-16.991 24.843-17.549 38.965-2.377 59.92 90.599 96.238 155.73 57.36 37.803 37.28 100.21 39.376 144.96 18.987 2.973-1.306 2.095-2.302-0.828-0.932-30.387 14.936-84.824 7.9-126.34-31.357 28.96-26.842 40.837-68.239 24.946-106.01 46.026 13.149 69.165 62.662 97.01 85.577 49.051 41.38 101.51 58.546 150.92 56.371zm-3735.6 0c49.418 2.175 101.87-14.99 150.93-56.369 27.845-22.915 50.984-72.429 97.009-85.577-15.891 37.771-4.014 79.168 24.946 106.01-41.514 39.257-95.951 46.292-126.34 31.357-2.923-1.37-3.802-0.375-0.828 0.932 44.749 20.389 107.16 18.293 144.96-18.987 65.133 38.878 158.11 2.56 155.73-57.36-0.558-14.122-6.811-27.982-17.549-38.965 15.265 18.036 18.054 42.626 7.243 62.73-20.613 38.316-88.239 55.444-136.71 23.91 33.932-42.614 23.769-108.31-27.171-116.08 17.351-26.271 49.36-45.225 86.342-52.248 122.87-23.351 216.08 84.707 175.09 184.95-35.315 86.332-166.73 137.35-290.43 99.51-5.139-19.428-25.716-37.581-50.923-49.938-71.103-35.156-138.04-32.424-193.49-32.694-0.271-55.442 2.462-122.38-32.694-193.49-12.356-25.207-30.509-45.784-49.938-50.923-37.845-123.7 13.177-255.12 99.509-290.43 100.24-40.987 208.3 52.223 184.95 175.09-7.023 36.982-25.977 68.991-52.248 86.343-7.771-50.941-73.464-61.103-116.08-27.171-31.533-48.469-14.406-116.1 23.91-136.71 20.104-10.811 44.694-8.022 62.73 7.243-10.983-10.738-24.843-16.991-38.965-17.549-59.92-2.377-96.238 90.599-57.36 155.73-37.28 37.803-39.376 100.21-18.987 144.96 1.306 2.973 2.302 2.095 0.932-0.828-14.936-30.387-7.9-84.824 31.357-126.34 26.842 28.96 68.239 40.837 106.01 24.946-13.149 46.026-62.662 69.165-85.578 97.01-41.378 49.051-58.544 101.51-56.369 150.92zm0-3735.6c-2.175 49.418 14.991 101.87 56.369 150.93 22.915 27.845 72.429 50.984 85.578 97.009-37.771-15.891-79.168-4.014-106.01 24.946-39.257-41.514-46.293-95.951-31.357-126.34 1.37-2.923 0.375-3.802-0.932-0.828-20.389 44.749-18.293 107.16 18.987 144.96-38.878 65.133-2.56 158.11 57.36 155.73 14.122-0.558 27.982-6.811 38.965-17.549-18.036 15.265-42.626 18.054-62.73 7.243-38.316-20.613-55.444-88.239-23.91-136.71 42.614 33.932 108.31 23.769 116.08-27.171 26.271 17.351 45.225 49.36 52.248 86.342 23.351 122.87-84.707 216.08-184.95 175.09-86.332-35.315-137.35-166.73-99.509-290.43 19.429-5.139 37.581-25.716 49.938-50.923 35.156-71.103 32.424-138.04 32.694-193.49 55.442-0.271 122.38 2.462 193.49-32.694 25.207-12.356 45.784-30.509 50.923-49.938 123.7-37.845 255.12 13.177 290.43 99.509 40.987 100.24-52.223 208.3-175.09 184.95-36.982-7.023-68.992-25.977-86.342-52.248 50.941-7.771 61.103-73.464 27.171-116.08 48.469-31.533 116.1-14.406 136.71 23.91 10.811 20.104 8.022 44.694-7.243 62.73 10.738-10.983 16.991-24.843 17.549-38.965 2.377-59.92-90.599-96.238-155.73-57.36-37.803-37.28-100.21-39.376-144.96-18.987-2.973 1.306-2.095 2.302 0.828 0.932 30.388-14.936 84.825-7.9 126.34 31.357-28.96 26.842-40.837 68.239-24.946 106.01-46.025-13.149-69.165-62.662-97.009-85.578-49.053-41.379-101.51-58.545-150.93-56.37zm3647.1 88.535c-20.535-12.809-14.667-32.327 34.784-43.054-0.173 2.324 0.492 4.634 1.755 6.515 1.881 1.263 4.191 1.928 6.515 1.755-10.727 49.451-30.245 55.319-43.054 34.784zm0 3558.5c12.809-20.535 32.327-14.667 43.054 34.784-2.324-0.173-4.634 0.492-6.515 1.755-1.263 1.881-1.928 4.191-1.755 6.515-49.451-10.727-55.319-30.245-34.784-43.054zm-3558.5 0c20.535 12.809 14.667 32.327-34.784 43.054 0.173-2.324-0.492-4.634-1.755-6.515-1.881-1.263-4.191-1.928-6.515-1.755 10.727-49.451 30.245-55.319 43.054-34.784zm0-3558.5c-12.809 20.535-32.327 14.667-43.054-34.784 2.324 0.173 4.634-0.492 6.515-1.755 1.263-1.881 1.928-4.191 1.755-6.515 49.451 10.727 55.319 30.245 34.784 43.054zm3650.6-92.053c-49.019 1.307-106.96 1.051-166.17-22.411-23.793-9.896-53.709-27.361-62.163-51.55 33.154 12.739 63.113 31.626 86.807 55.928-21.3-25.691-51.417-48.25-88.64-63.68-4.029-34.851 53.841-53.49 86.789-33.207 21.131 12.197 26.946 36.995-5e-3 43.406-9.554 2.171-26.081-0.5-28.46-8.289 9.13 0.509 15.558-5.111 11.942-11.166-3.825-6.346-15.445-8.566-22.374-4.604-13.464 6.041-6.518 20.825 11.194 27.514 30.861 11.257 62.14-10.744 46.477-32.037-29.31-44.914-124.9-33.768-123.36 11.73-101.87-34.087-227.25-8.874-287.54 67.383-6.896 2.216-13.798 4.45-20.662 6.725-2.071-18.427-16.062-33.139-31.487-43.37-81.174-53.821-233.53 16.145-179.82 113.41-60.983 17.482-123.62 30.342-187.76 34.726-59.733-26.714-33.71-96.756 12.635-96.961 37.531-0.183 48.2 43.899 62.082 81.663-0.419-24.007-1.618-35.474 3.198-51.492 7.813-25.788 25.473-45.106 53.077-49.631-31.681 1.498-54.402 26.579-62.51 57.519-5.717-16.03-13.272-31.582-27.739-41.158-27.265-18.011-68.623-7.368-84.915 28.181-40.915 6.909-96.667 4.362-155.25 3.702 7.712-0.563 15.892-1.27 24.757-2.112 55.577 3.68 83.982-19.649 90.676-64.563-0.351-0.014-0.667 0.013-1.018 0 0.019-0.136 0.045-0.244 0.064-0.378-55.253-3.311-64.74 39.09-93.641 62.149-3.289 0.275-6.459 0.55-9.531 0.806-27.581-24.041-35.682-68.573-91.614-68.307 4.165 45.28 31.562 67.067 76.217 69.554-38.734 2.996-69.461 5.109-96.406-6.711 40.497-18.279 1.622-32.256-24.387-49.329-8.921-5.844-12.986-17.899-12.866-25.635-0.279 0.383-0.541 0.775-0.828 1.149-0.1-1.247-0.081-2.027-0.081-2.027-32.522 43.529-26.381 83.87 30.261 79.163 6.783 2.072 14.018 3.86 22.36 5.234-21.829-0.283-44.126-0.594-66.748-0.91-4.964-20.931-34.833-21.759-40.559-0.612-3.099-0.045-6.225-0.094-9.342-0.131-4.124-5.849-12.584-6.021-16.928-0.288-158.24-2.538-334.55-5.929-492.4-12.086-0.398 0.094-1.98 0.373-4.661 0.789-2.682-0.416-4.263-0.695-4.661-0.789-157.85 6.157-334.16 9.548-492.4 12.086-4.344-5.733-12.805-5.562-16.928 0.288-3.117 0.037-6.243 0.086-9.342 0.131-5.727-21.146-35.595-20.319-40.559 0.612-22.621 0.316-44.919 0.626-66.748 0.91 8.342-1.374 15.577-3.162 22.36-5.234 56.642 4.707 62.784-35.634 30.262-79.163 0 0 0.018 0.779-0.081 2.027-0.288-0.374-0.55-0.766-0.828-1.149 0.121 7.736-3.944 19.791-12.866 25.635-26.009 17.073-64.884 31.051-24.387 49.329-26.945 11.821-57.672 9.707-96.406 6.711 44.655-2.488 72.051-24.274 76.217-69.554-55.931-0.266-64.033 44.266-91.614 68.307-3.072-0.256-6.243-0.531-9.531-0.806-28.901-23.059-38.388-65.46-93.641-62.149 0.019 0.135 0.045 0.243 0.064 0.378-0.351 0.013-0.667-0.014-1.018 0 6.694 44.914 35.099 68.243 90.676 64.563 8.866 0.842 17.046 1.55 24.757 2.112-58.587 0.66-114.34 3.206-155.25-3.702-16.292-35.548-57.65-46.191-84.915-28.181-14.467 9.576-22.022 25.127-27.739 41.158-8.108-30.939-30.829-56.021-62.51-57.519 27.604 4.525 45.265 23.843 53.077 49.631 4.817 16.018 3.617 27.485 3.198 51.492 13.881-37.764 24.551-81.846 62.081-81.663 46.345 0.204 72.368 70.247 12.635 96.961-64.134-4.384-126.77-17.244-187.76-34.726 53.705-97.262-98.647-167.23-179.82-113.41-15.425 10.231-29.416 24.943-31.487 43.37-6.865-2.275-13.766-4.509-20.662-6.725-60.285-76.257-185.67-101.47-287.54-67.383 1.534-45.498-94.051-56.644-123.36-11.73-15.663 21.293 15.617 43.293 46.477 32.037 17.712-6.689 24.658-21.474 11.194-27.514-6.929-3.962-18.549-1.741-22.374 4.604-3.616 6.055 2.813 11.676 11.942 11.166-2.379 7.789-18.906 10.46-28.46 8.289-26.951-6.411-21.135-31.208-4e-3 -43.406 32.948-20.282 90.818-1.644 86.789 33.207-37.224 15.431-67.341 37.99-88.64 63.68 23.694-24.302 53.653-43.189 86.807-55.928-8.453 24.189-38.37 41.654-62.163 51.55-59.205 23.462-117.15 23.718-166.17 22.411 1.307 49.019 1.051 106.96-22.411 166.17-9.896 23.793-27.361 53.709-51.55 62.163 12.739-33.154 31.626-63.113 55.928-86.807-25.691 21.3-48.25 51.416-63.68 88.64-34.851 4.029-53.49-53.841-33.207-86.789 12.197-21.131 36.995-26.946 43.406 4e-3 2.171 9.554-0.5 26.081-8.289 28.46 0.509-9.13-5.111-15.558-11.166-11.942-6.346 3.825-8.566 15.445-4.604 22.374 6.041 13.464 20.825 6.518 27.514-11.194 11.257-30.861-10.744-62.14-32.037-46.477-44.914 29.31-33.768 124.9 11.73 123.36-34.088 101.87-8.875 227.25 67.382 287.54 2.216 6.896 4.45 13.797 6.725 20.662-18.427 2.071-33.139 16.062-43.37 31.487-53.821 81.174 16.145 233.53 113.41 179.82 17.482 60.983 30.342 123.62 34.726 187.76-26.714 59.733-96.756 33.71-96.961-12.635-0.183-37.531 43.899-48.2 81.663-62.081-24.007 0.419-35.474 1.618-51.492-3.198-25.788-7.812-45.106-25.473-49.631-53.077 1.498 31.681 26.579 54.402 57.519 62.51-16.03 5.716-31.582 13.272-41.158 27.739-18.011 27.265-7.368 68.623 28.181 84.915 6.909 40.915 4.362 96.666 3.702 155.25-0.563-7.711-1.27-15.891-2.112-24.757 3.68-55.577-19.649-83.983-64.563-90.676-0.014 0.351 0.013 0.667 0 1.018-0.136-0.018-0.244-0.045-0.378-0.064-3.311 55.253 39.09 64.74 62.149 93.641 0.275 3.289 0.55 6.459 0.806 9.531-24.041 27.581-68.573 35.682-68.307 91.614 45.28-4.165 67.067-31.562 69.554-76.217 2.996 38.734 5.109 69.461-6.711 96.406-18.279-40.496-32.256-1.622-49.329 24.387-5.844 8.921-17.899 12.986-25.635 12.866 0.383 0.279 0.775 0.541 1.149 0.828-1.247 0.1-2.027 0.081-2.027 0.081 43.529 32.522 83.87 26.38 79.163-30.262 2.072-6.783 3.86-14.018 5.234-22.36-0.283 21.829-0.594 44.126-0.91 66.748-20.931 4.964-21.759 34.833-0.612 40.559-0.045 3.1-0.094 6.225-0.131 9.342-5.849 4.124-6.021 12.584-0.288 16.928-2.538 158.24-5.929 334.55-12.086 492.4 0.094 0.398 0.373 1.98 0.789 4.661-0.416 2.682-0.695 4.263-0.789 4.661 6.157 157.85 9.548 334.16 12.086 492.4-5.733 4.344-5.562 12.804 0.288 16.928 0.037 3.117 0.086 6.243 0.131 9.342-21.146 5.727-20.319 35.595 0.612 40.559 0.316 22.621 0.626 44.919 0.91 66.748-1.374-8.342-3.162-15.577-5.234-22.36 4.707-56.642-35.634-62.784-79.163-30.261 0 0 0.779-0.019 2.027 0.081-0.374 0.288-0.766 0.55-1.149 0.828 7.736-0.121 19.791 3.944 25.635 12.866 17.073 26.009 31.051 64.884 49.329 24.387 11.821 26.946 9.707 57.672 6.711 96.406-2.488-44.655-24.274-72.051-69.554-76.217-0.266 55.931 44.266 64.033 68.307 91.614-0.256 3.072-0.531 6.243-0.806 9.531-23.059 28.901-65.46 38.387-62.149 93.641 0.135-0.019 0.243-0.045 0.378-0.064 0.013 0.352-0.014 0.667 0 1.018 44.914-6.694 68.243-35.099 64.563-90.676 0.842-8.866 1.55-17.046 2.112-24.757 0.66 58.587 3.206 114.34-3.702 155.25-35.548 16.292-46.191 57.65-28.181 84.915 9.576 14.467 25.127 22.022 41.158 27.739-30.939 8.108-56.021 30.829-57.519 62.51 4.525-27.604 23.843-45.264 49.631-53.077 16.018-4.817 27.485-3.617 51.492-3.198-37.764-13.881-81.846-24.551-81.663-62.082 0.204-46.344 70.247-72.368 96.961-12.635-4.384 64.134-17.244 126.77-34.726 187.76-97.262-53.705-167.23 98.647-113.41 179.82 10.231 15.425 24.943 29.416 43.37 31.487-2.275 6.865-4.509 13.766-6.725 20.662-76.258 60.286-101.47 185.67-67.383 287.54-45.498-1.534-56.644 94.051-11.73 123.36 21.293 15.663 43.293-15.616 32.037-46.477-6.689-17.712-21.474-24.658-27.514-11.194-3.962 6.929-1.741 18.549 4.604 22.374 6.055 3.616 11.676-2.813 11.166-11.942 7.789 2.379 10.46 18.906 8.289 28.46-6.411 26.951-31.208 21.135-43.406 5e-3 -20.282-32.948-1.644-90.818 33.207-86.789 15.431 37.224 37.99 67.341 63.68 88.64-24.302-23.694-43.189-53.653-55.928-86.807 24.189 8.453 41.654 38.37 51.55 62.163 23.462 59.205 23.718 117.15 22.411 166.17 49.019-1.307 106.96-1.051 166.17 22.411 23.793 9.896 53.709 27.361 62.163 51.55-33.154-12.739-63.113-31.626-86.807-55.928 21.3 25.691 51.416 48.25 88.64 63.68 4.029 34.851-53.841 53.49-86.789 33.207-21.131-12.197-26.946-36.995 4e-3 -43.406 9.554-2.17 26.081 0.5 28.46 8.289-9.13-0.509-15.558 5.111-11.942 11.166 3.825 6.346 15.445 8.566 22.374 4.604 13.464-6.041 6.518-20.825-11.194-27.514-30.861-11.257-62.14 10.743-46.477 32.037 29.31 44.914 124.9 33.768 123.36-11.73 101.87 34.087 227.25 8.874 287.54-67.384 6.896-2.216 13.797-4.45 20.662-6.725 2.071 18.427 16.062 33.139 31.487 43.37 81.174 53.821 233.53-16.145 179.82-113.41 60.983-17.482 123.62-30.342 187.76-34.726 59.733 26.714 33.71 96.756-12.635 96.961-37.531 0.183-48.2-43.899-62.081-81.663 0.419 24.007 1.618 35.474-3.198 51.492-7.812 25.788-25.473 45.106-53.077 49.631 31.681-1.498 54.402-26.579 62.51-57.519 5.716 16.031 13.272 31.582 27.739 41.158 27.265 18.01 68.623 7.368 84.915-28.18 40.915-6.909 96.666-4.362 155.25-3.702-7.711 0.563-15.891 1.27-24.757 2.113-55.577-3.68-83.983 19.649-90.676 64.563 0.351 0.014 0.667-0.013 1.018 0-0.018 0.135-0.045 0.244-0.064 0.378 55.253 3.311 64.74-39.09 93.641-62.149 3.289-0.275 6.459-0.55 9.531-0.806 27.581 24.041 35.682 68.573 91.614 68.307-4.165-45.28-31.562-67.067-76.217-69.554 38.734-2.996 69.461-5.109 96.406 6.711-40.496 18.279-1.622 32.256 24.387 49.329 8.921 5.844 12.986 17.899 12.866 25.635 0.279-0.383 0.541-0.775 0.828-1.148 0.1 1.247 0.081 2.027 0.081 2.027 32.522-43.529 26.38-83.87-30.262-79.163-6.783-2.072-14.018-3.86-22.36-5.234 21.829 0.283 44.126 0.594 66.748 0.91 4.964 20.931 34.833 21.759 40.559 0.613 3.1 0.045 6.225 0.094 9.342 0.131 4.124 5.849 12.584 6.021 16.928 0.288 158.24 2.538 334.55 5.929 492.4 12.086 0.398-0.094 1.98-0.373 4.661-0.789 2.682 0.416 4.263 0.695 4.661 0.789 157.85-6.157 334.16-9.548 492.4-12.086 4.344 5.733 12.804 5.562 16.928-0.288 3.117-0.037 6.243-0.086 9.342-0.131 5.727 21.146 35.595 20.319 40.559-0.613 22.621-0.315 44.919-0.626 66.748-0.91-8.342 1.374-15.577 3.162-22.36 5.234-56.642-4.707-62.784 35.634-30.261 79.163 0 0-0.019-0.779 0.081-2.027 0.288 0.374 0.55 0.766 0.828 1.148-0.121-7.736 3.944-19.791 12.866-25.635 26.009-17.073 64.884-31.051 24.387-49.329 26.946-11.821 57.672-9.707 96.406-6.711-44.655 2.488-72.051 24.274-76.217 69.554 55.931 0.266 64.033-44.266 91.614-68.307 3.072 0.256 6.243 0.531 9.531 0.806 28.901 23.059 38.387 65.46 93.641 62.149-0.019-0.135-0.045-0.243-0.064-0.378 0.352-0.013 0.667 0.014 1.018 0-6.694-44.914-35.099-68.243-90.676-64.563-8.866-0.842-17.046-1.55-24.757-2.113 58.587-0.659 114.34-3.207 155.25 3.702 16.292 35.548 57.65 46.191 84.915 28.18 14.467-9.576 22.022-25.127 27.739-41.158 8.108 30.939 30.829 56.021 62.51 57.519-27.604-4.525-45.264-23.843-53.077-49.631-4.817-16.018-3.617-27.485-3.198-51.492-13.881 37.764-24.551 81.846-62.082 81.663-46.344-0.205-72.368-70.247-12.635-96.961 64.134 4.384 126.77 17.244 187.76 34.726-53.705 97.262 98.647 167.23 179.82 113.41 15.425-10.231 29.416-24.943 31.487-43.37 6.865 2.275 13.766 4.509 20.662 6.725 60.286 76.258 185.67 101.47 287.54 67.384-1.534 45.498 94.051 56.644 123.36 11.73 15.663-21.293-15.616-43.293-46.477-32.037-17.712 6.689-24.658 21.474-11.194 27.514 6.929 3.962 18.549 1.741 22.374-4.604 3.616-6.055-2.813-11.676-11.942-11.166 2.379-7.789 18.906-10.459 28.46-8.289 26.951 6.411 21.135 31.208 5e-3 43.406-32.948 20.282-90.818 1.644-86.789-33.207 37.224-15.431 67.341-37.99 88.64-63.68-23.694 24.302-53.653 43.189-86.807 55.928 8.453-24.189 38.37-41.653 62.163-51.55 59.205-23.462 117.15-23.718 166.17-22.411-1.307-49.019-1.051-106.96 22.411-166.17 9.896-23.793 27.361-53.709 51.55-62.163-12.739 33.154-31.626 63.113-55.928 86.807 25.691-21.3 48.25-51.417 63.68-88.64 34.851-4.029 53.49 53.841 33.207 86.789-12.197 21.131-36.995 26.946-43.406-5e-3 -2.17-9.554 0.5-26.081 8.289-28.46-0.509 9.13 5.111 15.558 11.166 11.942 6.346-3.825 8.566-15.445 4.604-22.374-6.041-13.464-20.825-6.518-27.514 11.194-11.257 30.861 10.743 62.14 32.037 46.477 44.914-29.31 33.768-124.9-11.73-123.36 34.087-101.87 8.874-227.25-67.384-287.54-2.216-6.896-4.45-13.798-6.725-20.662 18.427-2.071 33.139-16.062 43.37-31.487 53.821-81.174-16.145-233.53-113.41-179.82-17.482-60.983-30.342-123.62-34.726-187.76 26.714-59.733 96.756-33.71 96.961 12.635 0.183 37.531-43.899 48.2-81.663 62.082 24.007-0.419 35.474-1.618 51.492 3.198 25.788 7.813 45.106 25.473 49.631 53.077-1.498-31.681-26.579-54.402-57.519-62.51 16.031-5.717 31.582-13.272 41.158-27.739 18.01-27.265 7.368-68.623-28.18-84.915-6.909-40.915-4.362-96.667-3.702-155.25 0.563 7.712 1.27 15.892 2.113 24.757-3.68 55.577 19.649 83.982 64.563 90.676 0.014-0.351-0.013-0.667 0-1.018 0.135 0.019 0.244 0.045 0.378 0.064 3.311-55.253-39.09-64.74-62.149-93.641-0.275-3.289-0.55-6.459-0.806-9.531 24.041-27.581 68.573-35.682 68.307-91.614-45.28 4.165-67.067 31.562-69.554 76.217-2.996-38.734-5.109-69.461 6.711-96.406 18.279 40.497 32.256 1.622 49.329-24.387 5.844-8.921 17.899-12.986 25.635-12.866-0.383-0.279-0.775-0.541-1.148-0.828 1.247-0.1 2.027-0.081 2.027-0.081-43.529-32.522-83.87-26.381-79.163 30.261-2.072 6.783-3.86 14.018-5.234 22.36 0.283-21.829 0.594-44.126 0.91-66.748 20.931-4.964 21.759-34.833 0.613-40.559 0.045-3.099 0.094-6.225 0.131-9.342 5.849-4.124 6.021-12.584 0.288-16.928 2.538-158.24 5.929-334.55 12.086-492.4-0.094-0.398-0.373-1.98-0.789-4.661 0.416-2.682 0.695-4.263 0.789-4.661-6.157-157.85-9.548-334.16-12.086-492.4 5.733-4.344 5.562-12.805-0.288-16.928-0.037-3.117-0.086-6.243-0.131-9.342 21.146-5.727 20.319-35.595-0.613-40.559-0.315-22.621-0.626-44.919-0.91-66.748 1.374 8.342 3.162 15.577 5.234 22.36-4.707 56.642 35.634 62.784 79.163 30.262 0 0-0.779 0.018-2.027-0.081 0.374-0.288 0.766-0.55 1.148-0.828-7.736 0.121-19.791-3.944-25.635-12.866-17.073-26.009-31.051-64.884-49.329-24.387-11.821-26.945-9.707-57.672-6.711-96.406 2.488 44.655 24.274 72.051 69.554 76.217 0.266-55.931-44.266-64.033-68.307-91.614 0.256-3.072 0.531-6.243 0.806-9.531 23.059-28.901 65.46-38.388 62.149-93.641-0.135 0.019-0.243 0.045-0.378 0.064-0.013-0.351 0.014-0.667 0-1.018-44.914 6.694-68.243 35.099-64.563 90.676-0.842 8.866-1.55 17.046-2.113 24.757-0.659-58.587-3.207-114.34 3.702-155.25 35.548-16.292 46.191-57.65 28.18-84.915-9.576-14.467-25.127-22.022-41.158-27.739 30.939-8.108 56.021-30.829 57.519-62.51-4.525 27.604-23.843 45.265-49.631 53.077-16.018 4.817-27.485 3.617-51.492 3.198 37.764 13.881 81.846 24.551 81.663 62.081-0.205 46.345-70.247 72.368-96.961 12.635 4.384-64.134 17.244-126.77 34.726-187.76 97.262 53.705 167.23-98.647 113.41-179.82-10.231-15.425-24.943-29.416-43.37-31.487 2.275-6.865 4.509-13.766 6.725-20.662 76.258-60.286 101.47-185.67 67.384-287.54 45.498 1.534 56.644-94.051 11.73-123.36-21.293-15.663-43.293 15.617-32.037 46.477 6.689 17.712 21.474 24.658 27.514 11.194 3.962-6.929 1.741-18.549-4.604-22.374-6.055-3.616-11.676 2.813-11.166 11.942-7.789-2.379-10.459-18.906-8.289-28.46 6.411-26.951 31.208-21.135 43.406-4e-3 20.282 32.948 1.644 90.818-33.207 86.789-15.431-37.224-37.99-67.341-63.68-88.64 24.302 23.694 43.189 53.653 55.928 86.807-24.189-8.453-41.653-38.37-51.55-62.163-23.462-59.205-23.718-117.15-22.411-166.17zm-1871.3 43.558c1.555 0.226 3.109 0.456 4.661 0.689 158.39-6.225 338.93-9.594 492.4-12.099 4.334 5.751 12.826 5.544 16.928-0.266 3.117-0.05 6.234-0.086 9.333-0.145 5.687 21.085 35.602 20.413 40.568-0.612 22.621-0.324 44.919-0.617 66.748-0.901-8.342 1.36-15.577 3.144-22.36 5.234-56.655-4.695-62.778 35.637-30.261 79.145 0 0-0.019-0.762 0.081-2.023 0.288 0.378 0.55 0.77 0.828 1.149 0 0-0.216-14.391 10.56-23.91 18.16-14.977 71.493-30.835 26.693-51.036 28.182-12.385 62.742-9.34 96.416-6.73-44.647 2.531-72.059 24.235-76.226 69.56 55.974 0.263 63.999-44.248 91.614-68.312 3.072 0.275 6.243 0.536 9.531 0.824 28.901 23.05 38.387 65.447 93.641 62.154-0.019-0.13-0.045-0.261-0.064-0.391 0.352-0.018 0.667 8e-3 1.018 0-6.694-44.915-35.099-68.244-90.676-64.555-8.866-0.856-17.046-1.55-24.757-2.126 82.258-0.892 117.75-2.052 150.76 2.987-7.557 36.915 18.375 60.915 53 76.167 54.767 20.333 156.04 18.305 211.8-9.658 11.986-6.036 8.689-5.847 11.81-4.315 47.535 23.303 110.21 7.884 159.6-11.253 10.251 105.98 124.67 164.01 226.16 134.28 39.122-11.469 71.667-35.073 87.261-65.982 37.347-7.099 71.548-47.447 85.925-58.442 31.392-27.126 83.856-69.893 147.45-75.901 1.411-0.153 2.817-0.293 4.218-0.421-0.128 1.4-0.268 2.806-0.421 4.217-6.009 63.59-48.775 116.06-75.901 147.45-10.995 14.377-51.343 48.578-58.442 85.925-30.909 15.594-54.513 48.139-65.982 87.261-29.736 101.49 28.292 215.91 134.28 226.16-19.137 49.39-34.556 112.06-11.253 159.6 1.532 3.121 1.721-0.176-4.314 11.81-27.963 55.759-29.991 157.03-9.658 211.8 15.252 34.625 39.251 60.557 76.167 53 5.039 33.013 3.879 68.505 2.987 150.76-0.576-7.711-1.27-15.891-2.126-24.757 3.689-55.577-19.64-83.983-64.555-90.676-8e-3 0.351 0.019 0.667 0 1.018-0.13-0.018-0.261-0.045-0.391-0.064-3.293 55.253 39.103 64.74 62.154 93.641 0.288 3.289 0.549 6.459 0.824 9.531-24.063 27.615-68.574 35.639-68.312 91.614 45.325-4.167 67.029-31.578 69.56-76.226 2.61 33.673 5.655 68.234-6.73 96.415-20.201-44.8-36.06 8.534-51.036 26.693-9.519 10.775-23.91 10.559-23.91 10.559 0.378 0.279 0.77 0.541 1.148 0.828-1.261 0.1-2.023 0.081-2.023 0.081 43.508 32.517 83.84 26.393 79.145-30.262 2.09-6.783 3.875-14.018 5.234-22.36-0.283 21.829-0.576 44.126-0.9 66.748-21.025 4.966-21.698 34.881-0.612 40.568-0.059 3.099-0.095 6.216-0.145 9.333-5.809 4.102-6.016 12.594-0.266 16.928-2.505 153.47-5.874 334.01-12.099 492.4 0.233 1.553 0.463 3.106 0.689 4.661-0.226 1.555-0.456 3.109-0.689 4.661 6.225 158.39 9.594 338.93 12.099 492.4-5.75 4.334-5.543 12.826 0.266 16.928 0.05 3.117 0.086 6.234 0.145 9.333-21.085 5.687-20.413 35.602 0.612 40.568 0.324 22.621 0.617 44.919 0.9 66.748-1.36-8.342-3.144-15.577-5.234-22.36 4.695-56.655-35.637-62.778-79.145-30.261 0 0 0.762-0.019 2.023 0.081-0.378 0.288-0.77 0.55-1.148 0.828 0 0 14.391-0.216 23.91 10.56 14.977 18.16 30.835 71.493 51.036 26.693 12.385 28.182 9.34 62.742 6.73 96.416-2.531-44.647-24.235-72.059-69.56-76.226-0.263 55.974 44.248 63.999 68.312 91.614-0.275 3.072-0.536 6.243-0.824 9.531-23.05 28.901-65.447 38.387-62.154 93.641 0.13-0.019 0.261-0.045 0.391-0.064 0.019 0.352-8e-3 0.667 0 1.018 44.915-6.694 68.244-35.099 64.555-90.676 0.856-8.866 1.55-17.046 2.126-24.757 0.892 82.258 2.052 117.75-2.987 150.76-36.915-7.557-60.915 18.375-76.167 53-20.333 54.767-18.305 156.04 9.658 211.8 6.036 11.986 5.847 8.689 4.314 11.81-23.303 47.535-7.884 110.21 11.253 159.6-105.98 10.251-164.01 124.67-134.28 226.16 11.469 39.122 35.073 71.667 65.982 87.261 7.099 37.347 47.448 71.548 58.442 85.925 27.126 31.392 69.893 83.856 75.901 147.45 0.153 1.411 0.293 2.817 0.421 4.218-1.4-0.128-2.806-0.268-4.218-0.421-63.59-6.009-116.06-48.775-147.45-75.901-14.377-10.995-48.578-51.343-85.925-58.442-15.594-30.909-48.139-54.513-87.261-65.982-101.49-29.736-215.91 28.292-226.16 134.28-49.39-19.137-112.06-34.556-159.6-11.253-3.121 1.532 0.176 1.721-11.81-4.314-55.76-27.963-157.03-29.991-211.8-9.658-34.625 15.252-60.557 39.251-53 76.167-33.013 5.039-68.505 3.879-150.76 2.987 7.712-0.576 15.892-1.27 24.757-2.126 55.577 3.689 83.982-19.64 90.676-64.555-0.351-8e-3 -0.667 0.019-1.018 0 0.019-0.13 0.045-0.261 0.064-0.391-55.253-3.293-64.74 39.103-93.641 62.154-3.289 0.288-6.459 0.549-9.531 0.824-27.615-24.063-35.639-68.574-91.614-68.312 4.167 45.325 31.578 67.029 76.226 69.56-33.673 2.61-68.234 5.655-96.416-6.73 44.8-20.201-8.533-36.06-26.693-51.036-10.775-9.519-10.56-23.91-10.56-23.91-0.279 0.378-0.541 0.77-0.828 1.148-0.1-1.261-0.081-2.023-0.081-2.023-32.517 43.508-26.393 83.84 30.261 79.145 6.783 2.09 14.018 3.875 22.36 5.234-21.829-0.283-44.126-0.576-66.748-0.9-4.966-21.025-34.881-21.698-40.568-0.612-3.099-0.059-6.216-0.095-9.333-0.145-4.102-5.809-12.594-6.016-16.928-0.266-153.47-2.505-334.01-5.874-492.4-12.099-1.553 0.233-3.106 0.463-4.661 0.689-1.555-0.226-3.109-0.456-4.661-0.689-158.39 6.225-338.93 9.594-492.4 12.099-4.334-5.75-12.826-5.543-16.928 0.266-3.117 0.05-6.234 0.086-9.333 0.145-5.687-21.085-35.602-20.413-40.568 0.612-22.621 0.324-44.919 0.617-66.748 0.9 8.342-1.36 15.577-3.144 22.36-5.234 56.655 4.695 62.778-35.637 30.262-79.145 0 0 0.018 0.762-0.081 2.023-0.288-0.378-0.55-0.77-0.828-1.148 0 0 0.216 14.391-10.559 23.91-18.16 14.977-71.493 30.835-26.693 51.036-28.182 12.385-62.742 9.34-96.415 6.73 44.647-2.531 72.059-24.235 76.226-69.56-55.974-0.263-63.999 44.248-91.614 68.312-3.072-0.275-6.243-0.536-9.531-0.824-28.901-23.05-38.388-65.447-93.641-62.154 0.019 0.13 0.045 0.261 0.064 0.391-0.351 0.019-0.667-8e-3 -1.018 0 6.694 44.915 35.099 68.244 90.676 64.555 8.866 0.856 17.046 1.55 24.757 2.126-82.258 0.892-117.75 2.052-150.76-2.987 7.557-36.915-18.375-60.915-53-76.167-54.766-20.333-156.04-18.305-211.8 9.658-11.986 6.036-8.689 5.847-11.81 4.314-47.535-23.303-110.21-7.884-159.6 11.253-10.251-105.98-124.67-164.01-226.16-134.28-39.122 11.469-71.667 35.073-87.261 65.982-37.347 7.099-71.548 47.448-85.925 58.442-31.392 27.126-83.857 69.893-147.45 75.901-1.411 0.153-2.817 0.293-4.217 0.421 0.128-1.4 0.268-2.806 0.421-4.218 6.009-63.59 48.775-116.06 75.901-147.45 10.995-14.377 51.343-48.578 58.442-85.925 30.909-15.594 54.513-48.139 65.982-87.261 29.736-101.49-28.292-215.91-134.28-226.16 19.137-49.39 34.556-112.06 11.253-159.6-1.532-3.121-1.721 0.176 4.315-11.81 27.963-55.76 29.991-157.03 9.658-211.8-15.252-34.625-39.251-60.557-76.167-53-5.039-33.013-3.879-68.505-2.987-150.76 0.576 7.712 1.27 15.892 2.126 24.757-3.689 55.577 19.64 83.982 64.555 90.676 8e-3 -0.351-0.018-0.667 0-1.018 0.13 0.019 0.261 0.045 0.391 0.064 3.293-55.253-39.103-64.74-62.154-93.641-0.288-3.289-0.549-6.459-0.824-9.531 24.064-27.615 68.575-35.639 68.312-91.614-45.325 4.167-67.029 31.578-69.56 76.226-2.61-33.673-5.655-68.234 6.73-96.416 20.201 44.8 36.06-8.533 51.036-26.693 9.519-10.775 23.91-10.56 23.91-10.56-0.378-0.279-0.77-0.541-1.149-0.828 1.261-0.1 2.023-0.081 2.023-0.081-43.508-32.517-83.839-26.393-79.145 30.261-2.09 6.783-3.875 14.018-5.234 22.36 0.283-21.829 0.577-44.126 0.901-66.748 21.025-4.966 21.698-34.881 0.612-40.568 0.059-3.099 0.095-6.216 0.145-9.333 5.809-4.102 6.016-12.594 0.266-16.928 2.505-153.47 5.874-334.01 12.099-492.4-0.233-1.553-0.463-3.106-0.689-4.661 0.226-1.555 0.456-3.109 0.689-4.661-6.225-158.39-9.594-338.93-12.099-492.4 5.751-4.334 5.544-12.826-0.266-16.928-0.05-3.117-0.086-6.234-0.145-9.333 21.085-5.687 20.413-35.602-0.612-40.568-0.324-22.621-0.617-44.919-0.901-66.748 1.36 8.342 3.144 15.577 5.234 22.36-4.695 56.655 35.637 62.778 79.145 30.262 0 0-0.762 0.018-2.023-0.081 0.378-0.288 0.77-0.55 1.149-0.828 0 0-14.391 0.216-23.91-10.559-14.977-18.16-30.835-71.493-51.036-26.693-12.385-28.182-9.34-62.742-6.73-96.415 2.531 44.647 24.235 72.059 69.56 76.226 0.263-55.974-44.248-63.999-68.312-91.614 0.275-3.072 0.536-6.243 0.824-9.531 23.05-28.901 65.447-38.388 62.154-93.641-0.13 0.019-0.261 0.045-0.391 0.064-0.018-0.351 8e-3 -0.667 0-1.018-44.915 6.694-68.244 35.099-64.555 90.676-0.856 8.866-1.55 17.046-2.126 24.757-0.892-82.258-2.052-117.75 2.987-150.76 36.915 7.557 60.915-18.375 76.167-53 20.333-54.766 18.305-156.04-9.658-211.8-6.036-11.986-5.847-8.689-4.315-11.81 23.303-47.535 7.884-110.21-11.253-159.6 105.98-10.251 164.01-124.67 134.28-226.16-11.469-39.122-35.073-71.667-65.982-87.261-7.099-37.347-47.447-71.548-58.442-85.925-27.126-31.392-69.893-83.857-75.901-147.45-0.153-1.411-0.293-2.817-0.421-4.217 1.4 0.128 2.806 0.268 4.217 0.421 63.59 6.009 116.06 48.775 147.45 75.901 14.377 10.995 48.578 51.343 85.925 58.442 15.594 30.909 48.139 54.513 87.261 65.982 101.49 29.736 215.91-28.292 226.16-134.28 49.39 19.137 112.06 34.556 159.6 11.253 3.121-1.532-0.176-1.721 11.81 4.315 55.759 27.963 157.03 29.991 211.8 9.658 34.625-15.252 60.557-39.251 53-76.167 33.013-5.039 68.505-3.879 150.76-2.987-7.711 0.576-15.891 1.27-24.757 2.126-55.577-3.689-83.983 19.64-90.676 64.555 0.351 8e-3 0.667-0.018 1.018 0-0.018 0.13-0.045 0.261-0.064 0.391 55.253 3.293 64.74-39.103 93.641-62.154 3.289-0.288 6.459-0.549 9.531-0.824 27.615 24.064 35.639 68.575 91.614 68.312-4.167-45.325-31.578-67.029-76.226-69.56 33.673-2.61 68.234-5.655 96.415 6.73-44.8 20.201 8.534 36.06 26.693 51.036 10.775 9.519 10.559 23.91 10.559 23.91 0.279-0.378 0.541-0.77 0.828-1.149 0.1 1.261 0.081 2.023 0.081 2.023 32.517-43.508 26.393-83.839-30.262-79.145-6.783-2.09-14.018-3.875-22.36-5.234 21.829 0.283 44.126 0.577 66.748 0.901 4.966 21.025 34.881 21.698 40.568 0.612 3.099 0.059 6.216 0.095 9.333 0.145 4.102 5.809 12.594 6.016 16.928 0.266 153.47 2.505 334.01 5.874 492.4 12.099 1.552-0.233 3.106-0.463 4.661-0.689zm1832-4.27h-8.55c-3.729 0-6.941 2.328-8.481 5.721-60.266 13.246-63.289 35.198-37.81 49.12 13.922 25.48 35.874 22.456 49.12-37.81 3.392-1.54 5.721-4.752 5.721-8.481v-8.55zm-3664.1 0v8.55c0 3.729 2.328 6.941 5.721 8.481 13.246 60.266 35.198 63.289 49.12 37.81 25.48-13.922 22.456-35.874-37.81-49.12-1.54-3.392-4.752-5.721-8.481-5.721h-8.55zm0 3664.1h8.55c3.729 0 6.941-2.329 8.481-5.721 60.266-13.246 63.289-35.198 37.81-49.12-13.922-25.479-35.874-22.456-49.12 37.81-3.392 1.54-5.721 4.752-5.721 8.481v8.55zm3664.1 0v-8.55c0-3.729-2.329-6.941-5.721-8.481-13.246-60.266-35.198-63.289-49.12-37.81-25.479 13.922-22.456 35.874 37.81 49.12 1.54 3.392 4.752 5.721 8.481 5.721h8.55z" fill="#e6e6e6" stroke="#1a1a1a"/>
</svg>
