<?xml version="1.0" encoding="UTF-8"?>
<svg version="1.1" viewBox="0 0 512 512" xmlns="http://www.w3.org/2000/svg" xmlns:xlink="http://www.w3.org/1999/xlink">
 <defs>
  <filter id="aa" x="-.07574" y="-.14218" width="1.1515" height="1.2844" color-interpolation-filters="sRGB">
   <feGaussianBlur stdDeviation="7.1934563"/>
  </filter>
  <linearGradient id="c">
   <stop stop-color="#fcfc80" offset="0"/>
   <stop stop-color="#fff" offset=".5"/>
   <stop stop-color="#ecd450" offset=".75"/>
   <stop stop-color="#ecd450" offset=".85"/>
   <stop stop-color="#faf3ce" offset="1"/>
  </linearGradient>
  <filter id="z" color-interpolation-filters="sRGB">
   <feGaussianBlur stdDeviation="2.706644"/>
  </filter>
  <filter id="u" x="-.010697" y="-1.8378" width="1.0214" height="4.6755" color-interpolation-filters="sRGB">
   <feGaussianBlur stdDeviation="0.79196796"/>
  </filter>
  <linearGradient id="a">
   <stop stop-color="#fff" offset="0"/>
  </linearGradient>
  <filter id="x" x="-.28239" y="-.075031" width="1.5648" height="1.1501" color-interpolation-filters="sRGB">
   <feGaussianBlur stdDeviation="6.4713967"/>
  </filter>
  <filter id="v" x="-.011213" y="-.12778" width="1.0224" height="1.2556" color-interpolation-filters="sRGB">
   <feGaussianBlur stdDeviation="0.83245364"/>
  </filter>
  <filter id="w" x="-.011213" y="-.12778" width="1.0224" height="1.2556" color-interpolation-filters="sRGB">
   <feGaussianBlur stdDeviation="0.83245364"/>
  </filter>
  <filter id="y" x="-.0969" y="-.21299" width="1.1938" height="1.426" color-interpolation-filters="sRGB">
   <feGaussianBlur stdDeviation="1.5624155"/>
  </filter>
  <filter id="r" x="-.10102" y="-.20616" width="1.202" height="1.4123" color-interpolation-filters="sRGB">
   <feGaussianBlur stdDeviation="0.86281997"/>
  </filter>
  <filter id="s" x="-.15838" y="-.32322" width="1.3168" height="1.6464" color-interpolation-filters="sRGB">
   <feGaussianBlur stdDeviation="0.86281997"/>
  </filter>
  <filter id="t" x="-.23627" y="-.48218" width="1.4725" height="1.9644" color-interpolation-filters="sRGB">
   <feGaussianBlur stdDeviation="0.86281997"/>
  </filter>
  <linearGradient id="p" x1="316.08" x2="182.17" y1="349.24" y2="242.04" gradientUnits="userSpaceOnUse">
   <stop stop-color="#ffcc07" offset="0"/>
   <stop stop-opacity=".35683" offset=".42604"/>
  </linearGradient>
  <radialGradient id="m" cx="260.43" cy="619.1" r="113.97" gradientTransform="matrix(-7.2141e-8 .70417 -1.2243 -1.2542e-7 1198.8 112.87)" gradientUnits="userSpaceOnUse">
   <stop stop-color="#fff" offset="0"/>
   <stop stop-color="#f4e86c" offset=".66028"/>
   <stop stop-color="#d4ae29" offset=".83673"/>
   <stop stop-color="#eedb72" offset=".91755"/>
   <stop stop-color="#c8af0d" offset=".97143"/>
   <stop stop-color="#cd972b" offset="1"/>
  </radialGradient>
  <radialGradient id="l" cx="248.69" cy="509.16" r="96.875" gradientTransform="matrix(1.6436 1.3105e-6 -4.4901e-8 .65897 36.12 -92.319)" gradientUnits="userSpaceOnUse">
   <stop stop-color="#f0e464" offset="0"/>
   <stop stop-color="#e2c440" offset=".55"/>
   <stop stop-color="#cca623" offset=".6025"/>
   <stop stop-color="#f2c90b" offset="1"/>
  </radialGradient>
  <linearGradient id="o" x1="247.37" x2="247.37" y1="240.21" y2="324.88" gradientUnits="userSpaceOnUse" xlink:href="#c"/>
  <linearGradient id="n" x1="247.37" x2="247.37" y1="240.21" y2="324.88" gradientTransform="matrix(.85001 0 0 .85671 232.64 40.384)" gradientUnits="userSpaceOnUse" xlink:href="#c"/>
  <radialGradient id="k" cx="585.5" cy="281.75" r="27.5" gradientTransform="matrix(1 0 0 3.7636 0 -778.65)" gradientUnits="userSpaceOnUse" xlink:href="#a"/>
  <radialGradient id="j" cx="585.5" cy="281.75" r="27.5" gradientTransform="matrix(.70359 0 0 .32011 -109.85 340.6)" gradientUnits="userSpaceOnUse" xlink:href="#a"/>
  <radialGradient id="i" cx="585.5" cy="281.75" r="27.5" gradientTransform="matrix(.37269 0 0 .18262 83.887 379.34)" gradientUnits="userSpaceOnUse" xlink:href="#a"/>
  <radialGradient id="h" cx="585.5" cy="281.75" r="27.5" gradientTransform="matrix(.23772 0 0 .11649 162.91 397.97)" gradientUnits="userSpaceOnUse" xlink:href="#a"/>
  <radialGradient id="g" cx="585.5" cy="281.75" r="27.5" gradientTransform="matrix(.15935 0 0 .078083 208.8 408.79)" gradientUnits="userSpaceOnUse" xlink:href="#a"/>
 </defs>
 <g transform="translate(0,448)">
  <g transform="matrix(1.1272 0 0 1.1272 -105.96 -420.88)">
   <g transform="matrix(3.0191 0 0 3.0191 -786.37 -1331)">
    <g transform="matrix(.81526 0 0 .81526 68.408 93.897)">
     <g transform="matrix(1.0334 0 0 1.0334 -246.96 1984.4)">
      <g transform="matrix(-.30968 .17879 .17879 .30968 630.69 -1601.8)">
       <path id="e" transform="matrix(.80733 -.46611 .39337 .68134 146.34 268.48)" d="m364.28 288.65a113.97 60.713 0 1 1 -227.94 0 113.97 60.713 0 1 1 227.94 0z" fill="none" filter="url(#aa)" opacity=".73507" stroke="url(#p)" stroke-width="4.8384"/>
       <g id="f">
        <path d="m414.95 237.26c-48.395 7.0138-84.062 30.539-84.062 58.531v20c0 33.514 51.057 60.719 113.97 60.719 62.912 0 113.97-27.205 113.97-60.719 2.5486-52.37-50.303-73.154-84.156-78.531 31.184 4.7529 86.959 31.081 59.438 69.688-23.197 24.837-64.354 32.398-89.25 32.688-42.138-1e-5 -77.507-13.023-87.375-30.594-23.223-39.263 26.864-66.427 57.469-71.781z" fill="url(#m)" fill-rule="evenodd"/>
        <path d="m414.95 237.26c-21.966 4.0568-44.755 11.847-59.344 29.219-10.225 12.684-9.2608 28.053 0 40.469 2.4221 3.0284 1.338 1.0683 0.3125-1.1562 7.0837-19.203 47.188-38.317 91.895-39.054 44.601-0.73599 95.987 19.597 84.418 42.304 12.168-12.48 11.562-29.356 1.875-42.562-14.793-17.467-37.811-25.449-59.438-29.219-9.5189-1.375-19.48-2.1875-29.812-2.1875-10.365 0-20.36 0.80397-29.906 2.1875z" fill="url(#l)" fill-rule="evenodd"/>
        <path transform="matrix(.85001 0 0 .85671 233.19 41.336)" d="m364.28 288.65a113.97 60.713 0 1 1 -227.94 0 113.97 60.713 0 1 1 227.94 0z" fill="none" filter="url(#z)" stroke="url(#o)" stroke-width="2.8767"/>
        <path d="m542.28 287.68a96.876 52.014 0 0 1 -193.75 0 96.876 52.014 0 1 1 193.75 0z" fill="none" stroke="url(#n)" stroke-width="1.6366"/>
       </g>
       <use transform="matrix(-.5 .86603 .86603 .5 224.75 -98.828)" width="169.42609" height="81.357857" xlink:href="#e"/>
       <use transform="matrix(.70711 -.70711 .70711 .70711 -261.26 547.26)" width="169.42609" height="81.357857" xlink:href="#f"/>
      </g>
      <use id="d" transform="matrix(.65258 0 0 .28361 31.765 -1394)" width="1" height="1" xlink:href="#use4837"/>
      <use transform="matrix(.68229 0 0 .68229 266.68 -417.56)" width="1180" height="2960" xlink:href="#d"/>
     </g>
     <g id="q" transform="matrix(.96799 0 0 .96799 40.904 61.594)">
      <use transform="matrix(0 .38071 -1.7276 0 1046.3 315.78)" width="191" height="101" filter="url(#u)" xlink:href="#b"/>
      <path id="b" transform="matrix(.085334 0 0 .18917 252.14 377.49)" d="m613 281.75c0 57.161-12.312 103.5-27.5 103.5s-27.5-46.339-27.5-103.5 12.312-103.5 27.5-103.5 27.5 46.339 27.5 103.5z" fill="url(#k)" filter="url(#x)" opacity=".66079"/>
      <use transform="matrix(.098536 .22668 -1.1247 .48888 756.82 151.71)" width="191" height="101" filter="url(#v)" xlink:href="#b"/>
      <use transform="matrix(.098536 -.22668 -1.1247 -.48888 756.82 709.88)" width="191" height="101" filter="url(#w)" xlink:href="#b"/>
      <path d="m321.45 430.79c0 4.8617-8.6627 8.8029-19.349 8.8029-10.686 0-19.349-3.9412-19.349-8.8029 0-4.8617 8.6627-8.8029 19.349-8.8029 10.686 0 19.349 3.9412 19.349 8.8029z" fill="url(#j)" filter="url(#y)" opacity=".66079"/>
      <path d="m312.35 430.79c0 2.7736-4.5886 5.0221-10.249 5.0221-5.6604 0-10.249-2.2485-10.249-5.0221 0-2.7736 4.5886-5.0221 10.249-5.0221 5.6604 0 10.249 2.2485 10.249 5.0221z" fill="url(#i)" filter="url(#r)" opacity=".66079"/>
      <path d="m308.64 430.79c0 1.7692-2.9269 3.2033-6.5373 3.2033-3.6105 0-6.5373-1.4342-6.5373-3.2033 0-1.7692 2.9269-3.2034 6.5373-3.2034 3.6104 0 6.5373 1.4342 6.5373 3.2034z" fill="url(#h)" filter="url(#s)" opacity=".66079"/>
      <path d="m306.48 430.79c0 1.1859-1.962 2.1473-4.3821 2.1473-2.4202 0-4.3822-0.96137-4.3822-2.1473 0-1.1859 1.962-2.1473 4.3822-2.1473 2.4202 0 4.3821 0.96137 4.3821 2.1473z" fill="url(#g)" filter="url(#t)" opacity=".66079"/>
     </g>
     <use transform="matrix(.67814 0 0 .67814 207.68 205.92)" width="191" height="101" xlink:href="#q"/>
    </g>
   </g>
  </g>
 </g>
</svg>
