<?xml version="1.0" standalone="no"?>
<!DOCTYPE svg PUBLIC "-//W3C//DTD SVG 20010904//EN"
 "http://www.w3.org/TR/2001/REC-SVG-20010904/DTD/svg10.dtd">
<svg version="1.0" xmlns="http://www.w3.org/2000/svg"
 width="640.000000pt" height="640.000000pt" viewBox="0 0 640.000000 640.000000"
 preserveAspectRatio="xMidYMid meet">
<metadata>
Created by potrace 1.14, written by Peter Selinger 2001-2017
</metadata>
<g transform="translate(0.000000,640.000000) scale(0.100000,-0.100000)"
fill="#000000" stroke="none">
<path d="M2352 6383 c-110 -38 -179 -167 -207 -388 -8 -61 -7 -299 0 -375 8
-72 39 -217 57 -260 l14 -35 -97 -46 c-53 -26 -125 -66 -159 -89 -75 -51 -168
-143 -195 -193 -11 -21 -27 -37 -37 -37 -28 0 -38 -33 -38 -132 l0 -94 -52
-20 c-29 -10 -59 -18 -65 -18 -7 1 -13 -2 -13 -7 0 -5 -12 -15 -27 -22 -48
-20 -145 -77 -232 -136 -174 -116 -318 -291 -347 -424 -3 -17 -13 -42 -22 -55
-12 -18 -13 -42 -8 -118 l6 -96 -70 4 c-62 3 -70 1 -70 -15 0 -55 65 -133 102
-124 22 6 22 1 3 -52 -18 -51 -24 -127 -14 -163 4 -16 4 -28 -1 -28 -14 0
-176 -124 -237 -181 -176 -166 -265 -334 -279 -528 -4 -50 -8 -102 -9 -114 -1
-12 -3 -31 -4 -42 -1 -11 -13 12 -26 50 -35 98 -63 114 -96 53 -16 -30 -23
-178 -10 -225 13 -48 52 -93 81 -93 25 0 25 5 -5 -84 -14 -41 -25 -84 -25 -94
0 -11 -28 -58 -63 -104 -126 -167 -178 -314 -173 -488 4 -119 22 -193 72 -297
18 -39 34 -74 34 -77 0 -3 22 -38 49 -78 26 -40 65 -104 86 -143 136 -253 182
-325 264 -405 64 -63 72 -67 246 -137 268 -106 721 -253 892 -288 10 -2 81
-18 158 -35 155 -35 324 -66 458 -84 359 -50 520 -60 892 -61 247 0 496 9 554
20 9 1 48 6 86 9 275 25 671 99 985 185 305 83 693 221 950 338 175 80 240
115 267 143 45 46 84 131 144 310 28 85 70 193 94 240 82 166 110 280 102 417
-13 193 -109 383 -281 552 l-65 65 40 34 c46 39 75 97 87 173 10 66 5 160 -9
174 -13 13 -50 -31 -85 -102 -28 -59 -37 -67 -25 -25 4 15 9 59 10 99 2 61 -1
75 -18 92 -13 13 -27 50 -37 98 -20 98 -36 140 -93 237 -62 107 -222 268 -357
360 l-102 68 24 52 c23 50 31 120 16 142 -4 6 -16 15 -26 21 -18 10 -17 12 12
27 74 38 114 129 115 263 2 141 -25 149 -86 26 l-32 -63 0 101 c0 76 -3 102
-14 109 -19 11 -43 -2 -61 -34 -18 -35 -26 -33 -41 11 -55 168 -237 345 -504
489 l-90 49 3 70 c3 84 -6 103 -36 84 -12 -8 -26 -25 -32 -39 -6 -14 -20 -36
-30 -50 l-20 -25 5 65 c3 35 2 80 -1 98 -6 29 -10 33 -31 29 -20 -4 -26 2 -39
32 -62 148 -244 288 -499 382 -49 18 -91 34 -92 34 -2 1 13 72 32 157 47 207
64 327 61 418 -8 183 -91 325 -231 394 -196 97 -486 52 -734 -113 -34 -22 -65
-41 -69 -41 -4 0 -59 27 -122 60 -115 60 -249 118 -325 140 -63 19 -184 20
-233 3z m403 -258 c28 -8 82 -36 120 -62 93 -64 112 -71 175 -68 78 3 124 13
214 47 212 78 378 61 460 -46 68 -89 101 -240 93 -416 -3 -63 -10 -127 -16
-141 l-9 -26 -94 17 c-91 17 -138 24 -248 36 l-55 6 -2 42 c-2 22 -14 62 -27
89 -14 26 -21 47 -16 47 4 0 18 16 30 36 46 74 26 175 -45 230 -52 39 -137 46
-193 14 -69 -39 -104 -107 -92 -180 4 -27 1 -41 -17 -63 -13 -16 -23 -41 -23
-57 0 -48 -17 -43 -48 15 -17 30 -27 55 -24 55 15 0 52 67 57 103 15 94 -61
191 -156 199 -132 10 -229 -101 -193 -221 7 -25 24 -56 38 -69 l25 -25 -20
-38 c-24 -49 -30 -112 -14 -165 l12 -41 -66 -11 c-80 -13 -100 -17 -171 -36
-30 -8 -58 -12 -61 -8 -6 7 -22 84 -36 172 -4 25 -7 95 -6 155 1 169 35 277
110 350 82 80 169 97 298 60z"/>
<path d="M1576 4922 c-17 -33 -36 -131 -27 -137 4 -2 8 8 9 22 4 44 22 101 37
117 9 9 11 17 6 21 -6 3 -17 -7 -25 -23z"/>
<path d="M802 4013 c-14 -37 -25 -123 -15 -123 4 0 9 21 11 47 3 47 16 82 36
95 7 5 5 8 -5 8 -9 0 -21 -12 -27 -27z"/>
</g>
</svg>
